<svg width="24" height="24" viewBox="0 0 24 24" fill="none" xmlns="http://www.w3.org/2000/svg">
<path d="M11.9392 2.20983L9.52922 7.81983H7.11922C6.71922 7.81983 6.32922 7.84983 5.94922 7.92983L6.94922 5.52983L6.98922 5.43983L7.04922 5.27983C7.07922 5.20983 7.09922 5.14983 7.12922 5.09983C8.28922 2.40983 9.58922 1.56983 11.9392 2.20983Z" fill="#EB2625"/>
<path d="M18.7291 8.09002L18.7091 8.08002C18.1091 7.91002 17.4991 7.82002 16.8791 7.82002H10.6191L12.8691 2.59002L12.8991 2.52002C13.0391 2.57002 13.1891 2.64002 13.3391 2.69002L15.5491 3.62002C16.7791 4.13002 17.6391 4.66002 18.1691 5.30002C18.2591 5.42002 18.3391 5.53002 18.4191 5.66002C18.5091 5.80002 18.5791 5.94002 18.6191 6.09002C18.6591 6.18002 18.6891 6.26002 18.7091 6.35002C18.8591 6.86002 18.8691 7.44002 18.7291 8.09002Z" fill="#EB2625"/>
<path d="M18.2902 9.51982C17.8402 9.38982 17.3702 9.31982 16.8802 9.31982H7.12023C6.44023 9.31982 5.80023 9.44982 5.20023 9.70982C3.46023 10.4598 2.24023 12.1898 2.24023 14.1998V16.1498C2.24023 16.3898 2.26023 16.6198 2.29023 16.8598C2.51023 20.0398 4.21023 21.7398 7.39023 21.9498C7.62023 21.9798 7.85023 21.9998 8.10023 21.9998H15.9002C19.6002 21.9998 21.5502 20.2398 21.7402 16.7398C21.7502 16.5498 21.7602 16.3498 21.7602 16.1498V14.1998C21.7602 11.9898 20.2902 10.1298 18.2902 9.51982ZM14.5002 16.7498H9.50023C9.09023 16.7498 8.75023 16.4098 8.75023 15.9998C8.75023 15.5898 9.09023 15.2498 9.50023 15.2498H14.5002C14.9102 15.2498 15.2502 15.5898 15.2502 15.9998C15.2502 16.4098 14.9102 16.7498 14.5002 16.7498Z" fill="#EB2625"/>
</svg>
